<svg xmlns="http://www.w3.org/2000/svg" viewBox="0 0 188.42 125.77"><defs><style>.cls-1,.cls-2,.cls-4,.cls-8{fill:none;}.cls-1{stroke:#191919;}.cls-1,.cls-2,.cls-6{stroke-width:0.5px;}.cls-2,.cls-4,.cls-5,.cls-6,.cls-7{stroke:#000;}.cls-3,.cls-5{fill:#38a1ff;}.cls-8{stroke:#fff;}.cls-9{fill:#e9c8a1;}</style></defs><g id="Layer_2" data-name="Layer 2"><g id="Layer_1-2" data-name="Layer 1"><path class="cls-1" d="M122.63,97.09s-22.85,7.28-54-5.24"/><path class="cls-1" d="M77.31,97.85s-8.8,1.92-5,10.09"/><path class="cls-2" d="M78.78,103.41s-7,6.32,1,9c0,0,2.05.66,2.88-3.62"/><path class="cls-2" d="M85.36,109.09S96.76,122,125.7,119"/><path class="cls-3" d="M123.57,94.45a289,289,0,0,0,28.59-17s19.07-7.83,26.73,8.51c0,0,2,8.62,1.7,9.42s7.83,20.54,7.83,20.54-10.55,1.11-14.3,3.36l-1.7,4.64-46,1.87s11.92-7.83-2.89-32.17"/><path class="cls-2" d="M163.82,79.13s18.56,31.32-29.1,43.07"/><path class="cls-2" d="M179.48,96.83s0,12.94-4.76,19.24"/><polyline class="cls-1" points="152.12 46.73 144.59 56.69 150.46 56.69"/><path class="cls-1" d="M149.38,56.94V58.6s0,2.52,0,2.87S148,66.26,148,66.26s2.29,2.42,5,2.07h2.26l5.11,0"/><line class="cls-1" x1="155.31" y1="75" x2="155.31" y2="68.34"/><line class="cls-1" x1="170.63" y1="63.51" x2="170.63" y2="74.17"/><path d="M155.31,48.11s-11.74.45-10.66-6.45c0,0,.64-5.81,7.92-6.19s16.21,0,16.21,0,10.47,3.38,9.13,17.94c0,0-2.11,9.83-5.87,11.1l-2.43.77-3.14-3.85a3.33,3.33,0,0,1-.37-3.65l1.28-2.46c-7.28,0-7.34-7-7.34-7Z"/><circle cx="154.91" cy="51.58" r="0.7"/><path class="cls-2" d="M153.08,60.45s3.19,5.75,4.85-.77"/><line class="cls-4" x1="135.74" y1="83.3" x2="135.74" y2="83.41"/><line class="cls-4" x1="135.74" y1="79.13" x2="135.74" y2="83.3"/><path class="cls-2" d="M24.08,46.47V6.74A6.4,6.4,0,0,1,30.38.25h99.06a6.4,6.4,0,0,1,6.3,6.49V81.55"/><path class="cls-2" d="M64.68,95.52H30.38A6.39,6.39,0,0,1,24.08,89v-15"/><line class="cls-2" x1="108.21" y1="95.52" x2="90.93" y2="95.52"/><line class="cls-2" x1="24.08" y1="11.9" x2="135.74" y2="9.51"/><line class="cls-2" x1="111.91" y1="0.25" x2="111.91" y2="10"/><circle class="cls-5" cx="31.27" cy="6.79" r="1.87"/><circle class="cls-5" cx="37.99" cy="6.79" r="1.87"/><circle class="cls-5" cx="45.23" cy="6.79" r="1.87"/><path class="cls-2" d="M21,49.47S26.57,61.22,49,50.62"/><polyline class="cls-2" points="34.21 54.99 37.44 76.41 46.29 70.28 46.29 78.54"/><path class="cls-2" d="M48.51,79.9c11.48-13,3-29.28,3-29.28"/><polyline class="cls-2" points="51.51 49.85 54.89 49.85 58.55 48.83 72.99 60.6"/><path class="cls-2" d="M56.42,51.9s5.15,33,15,16.41a8.78,8.78,0,0,0,1.18-3.55c.26-2.28.61-6.92.71-15.93v-1.1h-6a19.87,19.87,0,0,1-1.88,6.83,10.79,10.79,0,0,1-4.84,5.08"/><line class="cls-2" x1="67.14" y1="66.76" x2="65.52" y2="54.56"/><path class="cls-2" d="M56.42,46.47V36H51.14S47.23,31.22,53.78,30l-.17-6s3.74-6.47,12.72-2l1.24,6.21s5.7,1.53,1,5.7c0,0,.85,7.28-7.4,7"/><polyline class="cls-2" points="56.42 24.83 56.42 23.64 59.74 23.64"/><line class="cls-4" x1="62.25" y1="22.88" x2="66.33" y2="22.03"/><polyline class="cls-6" points="59.74 27.98 59.74 29.09 58.72 29.09 58.72 27.98"/><polyline class="cls-2" points="62.25 26.58 62.25 28.24 64.29 28.24 64.29 26.32"/><polyline class="cls-2" points="64.89 30.96 63.27 30.96 63.27 28.24"/><path class="cls-2" d="M61.19,34.54s2.16,2.93,4.33-.3"/><path class="cls-2" d="M53.65,25.34H50.21V19s3.83-5.83,8.17-4.17"/><path class="cls-2" d="M54.82,22.64s2.84-11,9-11.59c-1.68.37,6.86-2.67,2.55,11.4"/><polygon class="cls-7" points="50.21 25.34 50.52 31.56 53.76 29.34 53.63 24.66 50.21 25.34"/><path class="cls-2" d="M75.23,51.73s1,19.61,12.25,22.32"/><path class="cls-2" d="M77.31,49.47s7.88,1.66,16-5.57l4.08,17.27s-2.38,4.6-10.81,6.47l-.08,3.58"/><path class="cls-2" d="M95.31,43.39s6.22-4.77,12.85-17.07c0,0-3.48-2.78.69-14.42"/><polyline class="cls-2" points="108.85 11.56 110.29 27.98 116.68 27.98 116.68 25.34"/><line class="cls-2" x1="114.63" y1="23.64" x2="118.97" y2="23.64"/><line class="cls-2" x1="114.29" y1="19.77" x2="117.95" y2="19.77"/><line class="cls-2" x1="113.87" y1="15.64" x2="118.29" y2="15.64"/><path class="cls-2" d="M115.4,29.09s-1.53,23.15-15.49,29.79"/><line class="cls-2" x1="3.57" y1="45.77" x2="9.1" y2="41.51"/><path class="cls-2" d="M15.23,32.79s5.11-1.4,6.13,4.94"/><path class="cls-3" d="M17.36,50.11,10,15.05c-.85-4.64-3.23-3.49-3.23-3.49C2,23.81,14.35,52.26,14.35,52.26S17.52,54.21,17.36,50.11Z"/><path class="cls-8" d="M8.59,18.2s-3.49,4,1,7.14c3.36,2.35,2.15,6.09,1.32,7.85a1.43,1.43,0,0,0,.33,1.67c1.34,1.21,3.61,3.85,1.93,6.65-2.3,3.83,2.38,5,2.38,5"/><path class="cls-2" d="M.25,29.6S.16,1.77,6.34,28"/><line class="cls-2" x1="0.25" y1="35.39" x2="5.61" y2="30.2"/><line class="cls-2" x1="1.7" y1="40.07" x2="6.8" y2="35.39"/><path class="cls-2" d="M34.21,68.66C15.48,71.22,6.29,48.15,6.29,48.15s8.6,9.79,5.62-2.89"/><path class="cls-2" d="M17.36,27.28c-9.88-30.32-4,.15-4,.15"/><path class="cls-2" d="M21,43.9c-.1-.26-.19,12.76-4.53,0"/><path class="cls-2" d="M24.08,38.11s7.34,11.55,15.26-1.66c0,0,4.85,12.32,13,2.17"/><path class="cls-2" d="M69.19,38.79s1.74.32,3.8-3c0,0,7.43,8.46,15.77-.76"/><path class="cls-2" d="M90.21,31.56s2.72,5.33,9.7,4.2"/><path class="cls-2" d="M114.29,37.15s5.87.7,7.24-6.19c0,0,3.49,9,14.21,2.78"/><path class="cls-9" d="M24.8,12.37H38L37.7,36.71s-5.1,11.37-12.9.44Z"/><path class="cls-9" d="M88,11s-3.27,26.47,14.9,22.17c0,0,2.59-.68,3.53-7.36l.47-15.28Z"/><path class="cls-9" d="M120.38,10.49l.76,18.6s8.68,12.08,13.45-.21L135,10.49Z"/><polyline class="cls-2" points="39.53 94.92 39.53 80.62 84.21 80.62 84.21 92.69"/><line class="cls-2" x1="47.06" y1="86.4" x2="56.42" y2="86.4"/><line class="cls-2" x1="48.51" y1="90.71" x2="56.42" y2="90.71"/><line class="cls-4" x1="65.52" y1="86.4" x2="77.31" y2="86.4"/><line class="cls-4" x1="71.42" y1="90.2" x2="77.31" y2="90.2"/><path class="cls-2" d="M90.21,71.22s1.66,10.38,5.42,0"/><line class="cls-2" x1="92.92" y1="83.71" x2="92.62" y2="75.82"/><path class="cls-2" d="M97.31,71.58s2.3,10.53,5.26,0"/><polyline class="cls-2" points="89.38 92.69 89.38 84 103.8 84 103.8 91.86"/><line class="cls-2" x1="103.8" y1="76.26" x2="103.8" y2="84.79"/><polyline class="cls-2" points="111.78 89.3 111.78 75.83 104.12 75.83"/><polyline class="cls-2" points="118.8 89.3 118.8 76.86 111.78 76.86"/><line class="cls-2" x1="99.91" y1="84" x2="100.16" y2="75.83"/><line class="cls-2" x1="104.76" y1="74.05" x2="110.7" y2="74.05"/><line class="cls-2" x1="107.65" y1="66.76" x2="107.65" y2="74.05"/><line class="cls-2" x1="112.87" y1="74.94" x2="118.29" y2="74.94"/><line class="cls-2" x1="114.59" y1="66.39" x2="114.59" y2="74.94"/></g></g></svg>