<svg xmlns="http://www.w3.org/2000/svg" viewBox="0 0 171.49 109.5"><defs><style>.cls-1{fill:#0080ff;}</style></defs><g id="Layer_2" data-name="Layer 2"><g id="Layer_1-2" data-name="Layer 1"><path class="cls-1" d="M143.69,40.74a.11.11,0,0,1-.09-.08A55,55,0,0,0,37.72,39.53a.11.11,0,0,1-.11.08c-.86-.07-1.73-.11-2.61-.11A35,35,0,0,0,.08,72.17c-1.35,20.5,15.21,37.33,35.76,37.33h2.37a2.59,2.59,0,0,0,2.59-2.6V59.29a4.1,4.1,0,0,1,4.1-4.1h5.19a4.1,4.1,0,0,1,4.1,4.1v1.8a.1.1,0,0,0,.18.08A28.57,28.57,0,0,1,68.3,54.55a4.51,4.51,0,0,1,5.4,4.61v4c0,3.07-1.9,5-4.35,5.27-7.55.74-15.16,6.43-15.16,18.07V106.9a2.59,2.59,0,0,0,2.59,2.6H88.13a2.59,2.59,0,0,0,1.65-4.59,28.53,28.53,0,0,1-10.5-22.13,29.06,29.06,0,0,1,48.36-21.37,5.11,5.11,0,0,1,.09,7.59l-1.79,1.65a5.09,5.09,0,0,1-6.66.2,17.77,17.77,0,0,0-11-4.18c-8.48,0-15.61,7.23-15.61,16.11S99.79,98.9,108.27,98.9a17.91,17.91,0,0,0,11.24-4.37,4.71,4.71,0,0,1,6.21.19L128,96.83a4.73,4.73,0,0,1,.07,6.93c-.41.38-.84.75-1.27,1.11a2.6,2.6,0,0,0,1.61,4.63h8.08a34.73,34.73,0,0,0,7.19-68.76Z"/></g></g></svg>